#!OML:ASF F:\VICON\USERDATA\INSTALL\rory3\rory3.ASF
:FULLY-SPECIFIED
:DEGREES
663
root -1.9264 18.4895 2.2185 -151.043 -79.3302 146.161
lowerback 6.9079 0.764902 -4.25195
upperback 2.53931 0.673391 0.130367
thorax -1.3008 0.293926 2.46946
lowerneck -6.56167 -7.05697 -8.5988
upperneck 21.2794 -11.9425 11.8171
head 8.93775 -5.53437 4.18128
rclavicle 1.47598e-014 -8.74653e-015
rhumerus 43.4429 1.50359 -41.6728
rradius 65.624
rwrist 36.6339
rhand -51.0043 -8.09812
rfingers 7.12502
rthumb -23.5527 -36.676
lclavicle 1.47598e-014 -8.74653e-015
lhumerus 28.5258 -2.37367 45.3056
lradius 66.8269
lwrist -22.5408
lhand -38.8094 35.4006
lfingers 7.12502
lthumb -11.8199 65.0471
rfemur -16.2081 13.2127 2.85155
rtibia 37.6516
rfoot -13.4759 -21.1912
rtoes 8.55412
lfemur -1.84747 -1.41956 -26.4416
ltibia 23.6058
lfoot -13.7616 3.56342
ltoes -6.77224
664
root -1.94849 18.4954 2.18409 -151.327 -79.2786 146.488
lowerback 6.86884 0.593635 -4.35801
upperback 2.60441 0.440803 0.170686
thorax -1.19538 0.173175 2.58983
lowerneck -6.37277 -7.5036 -9.10889
upperneck 20.8475 -12.3832 11.6012
head 8.82672 -5.80285 4.13932
rclavicle 1.0138e-014 -8.74653e-015
rhumerus 43.044 2.27751 -42.231
rradius 67.1829
rwrist 37.0131
rhand -50.8191 -8.22281
rfingers 7.12502
rthumb -23.3751 -36.8234
lclavicle 1.0138e-014 -8.74653e-015
lhumerus 27.2054 -2.10047 45.2724
lradius 68.0821
lwrist -22.9661
lhand -38.8767 35.6049
lfingers 7.12502
lthumb -11.8848 65.2476
rfemur -16.0924 13.2523 2.70026
rtibia 37.6128
rfoot -13.174 -20.9923
rtoes 9.2411
lfemur -1.70418 -1.54153 -26.3491
ltibia 23.4282
lfoot -13.7844 3.83143
ltoes -7.25803
665
root -1.97071 18.4994 2.14631 -151.205 -79.145 146.49
lowerback 6.75569 0.286552 -4.74806
upperback 2.61617 0.0169954 0.361899
thorax -1.08634 -0.0432673 3.04006
lowerneck -6.088 -7.86971 -10.167
upperneck 20.4707 -12.6891 11.5255
head 8.74924 -6.0386 4.25635
rclavicle -7.45443e-016 7.95139e-016
rhumerus 43.0094 3.51885 -42.556
rradius 68.6803
rwrist 37.2684
rhand -50.782 -7.856
rfingers 7.12502
rthumb -23.3395 -36.4611
lclavicle -7.45443e-016 7.95139e-016
lhumerus 25.3128 -1.63358 45.0841
lradius 69.5365
lwrist -23.0933
lhand -38.8821 35.5687
lfingers 7.12502
lthumb -11.8899 65.2111
rfemur -16.0623 13.4848 2.42072
rtibia 37.5091
rfoot -12.9332 -20.9008
rtoes 9.35937
lfemur -1.65451 -1.43217 -26.2932
ltibia 23.2656
lfoot -13.8221 3.78063
ltoes -7.23573
666
root -1.99247 18.5011 2.11145 -152.59 -79.1438 147.918
lowerback 6.79432 0.1272 -4.69477
upperback 2.60078 -0.191867 0.466089
thorax -1.10518 -0.146832 3.13396
lowerneck -5.54477 -8.37481 -11.3278
upperneck 20.0726 -13.375 12.0468
head 8.72093 -6.42767 4.55489
rclavicle 3.05134e-014 -2.14687e-014
rhumerus 42.4491 4.46876 -42.5955
rradius 70.2062
rwrist 37.1548
rhand -50.5632 -7.9271
rfingers 7.12502
rthumb -23.1295 -36.5587
lclavicle 3.05134e-014 -2.14687e-014
lhumerus 23.7153 -1.76391 44.6808
lradius 71.0192
lwrist -23.1166
lhand -39.0006 34.9945
lfingers 7.12502
lthumb -12.0042 64.6303
rfemur -15.885 13.8381 2.48459
rtibia 37.3555
rfoot -12.7834 -20.8099
rtoes 9.21595
lfemur -1.45917 -1.14002 -25.901
ltibia 23.0306
lfoot -13.7652 3.66823
ltoes -7.64463
667
root -2.01464 18.5078 2.07637 -154.241 -79.1149 149.567
lowerback 6.83572 0.086589 -4.42974
upperback 2.5998 -0.233407 0.356056
thorax -1.12801 -0.16575 2.87419
lowerneck -4.98869 -8.9936 -12.0629
upperneck 19.736 -14.3139 12.5777
head 8.72882 -6.90825 4.75277
rclavicle 1.07841e-014 -1.11319e-014
rhumerus 41.4421 5.18885 -42.6791
rradius 71.7607
rwrist 36.9817
rhand -50.1483 -8.76665
rfingers 7.12502
rthumb -22.7314 -37.4476
lclavicle 1.07841e-014 -1.11319e-014
lhumerus 22.5105 -2.27895 44.1528
lradius 72.4165
lwrist -23.1997
lhand -39.1533 34.0024
lfingers 7.12502
lthumb -12.1515 63.6295
rfemur -15.6516 14.232 2.58884
rtibia 37.1634
rfoot -12.5385 -20.692
rtoes 9.00018
lfemur -1.18594 -1.04099 -25.5252
ltibia 22.7509
lfoot -13.7066 3.82696
ltoes -8.35985
668
root -2.04077 18.5134 2.0327 -153.587 -78.8703 149.003
lowerback 6.6553 0.0546053 -4.78718
upperback 2.57934 -0.292315 0.181472
thorax -1.04238 -0.197537 2.89804
lowerneck -4.35969 -9.72558 -12.2808
upperneck 19.2409 -15.2869 12.4017
head 8.58738 -7.42223 4.62303
rclavicle -2.29596e-014 1.74931e-014
rhumerus 40.4386 6.00044 -42.6739
rradius 73.3587
rwrist 36.8318
rhand -49.8501 -8.71809
rfingers 7.12502
rthumb -22.4452 -37.4339
lclavicle -2.29596e-014 1.74931e-014
lhumerus 21.2504 -2.77897 43.6836
lradius 73.8079
lwrist -23.3107
lhand -39.2638 33.3848
lfingers 7.12502
lthumb -12.258 63.0055
rfemur -15.5474 14.7668 2.16129
rtibia 36.918
rfoot -12.1834 -20.8706
rtoes 8.96826
lfemur -1.06853 -1.02689 -25.6646
ltibia 22.5167
lfoot -13.7092 4.09419
ltoes -9.36818
669
root -2.06667 18.5145 1.98639 -152.767 -78.6152 148.262
lowerback 6.52528 0.117708 -5.16617
upperback 2.5246 -0.230097 -0.0752042
thorax -1.03074 -0.166454 2.84047
lowerneck -3.52777 -10.5774 -12.091
upperneck 18.6233 -16.4411 12.0516
head 8.34276 -8.0189 4.36452
rclavicle -1.13804e-014 -2.06736e-014
rhumerus 39.132 6.71267 -42.5316
rradius 75.0019
rwrist 36.8131
rhand -49.6412 -9.05894
rfingers 7.12502
rthumb -22.2447 -37.7988
lclavicle -1.13804e-014 -2.06736e-014
lhumerus 20.2096 -3.55296 43.1047
lradius 75.1893
lwrist -23.3734
lhand -39.1897 33.0866
lfingers 7.12502
lthumb -12.1865 62.7116
rfemur -15.4185 15.4533 1.69464
rtibia 36.6349
rfoot -11.7214 -21.2548
rtoes 8.82628
lfemur -0.920591 -0.978941 -25.8358
ltibia 22.2846
lfoot -13.7061 4.35721
ltoes -10.0629
